<svg width="20" height="20" viewBox="0 0 20 20" fill="none" xmlns="http://www.w3.org/2000/svg">
<path fill-rule="evenodd" clip-rule="evenodd" d="M17.6201 1.25C16.9966 1.25 16.4902 1.7564 16.4902 2.37992V2.45571L3.32726 6.5689C3.12746 6.25886 2.77608 6.04872 2.37992 6.04872C1.7564 6.04872 1.25 6.55512 1.25 7.17864V10.565C1.25 11.1885 1.7564 11.6949 2.37992 11.6949C2.77608 11.6949 3.12746 11.4882 3.32726 11.1747L4.20226 11.4468L5.48376 17.2343C5.68356 18.1265 6.45866 18.75 7.375 18.75C9.09744 18.75 9.43504 17.124 9.26624 16.3971L8.46703 12.7835L16.4902 15.2913V15.3671C16.4902 15.9907 16.9966 16.497 17.6201 16.497C18.2436 16.497 18.75 15.9907 18.75 15.3671V2.37992C18.75 1.7564 18.2436 1.25 17.6201 1.25ZM2.94511 10.565C2.94511 10.875 2.69019 11.1299 2.38015 11.1299C2.07011 11.1299 1.81519 10.8785 1.81519 10.565V7.17865C1.81519 6.86861 2.07011 6.61369 2.38015 6.61369C2.69019 6.61369 2.94511 6.86517 2.94511 7.17865V10.565ZM7.37505 18.185C8.62554 18.185 8.80467 16.9276 8.7151 16.5177L7.84699 12.5836L4.82239 11.6397L6.03499 17.1102C6.17623 17.744 6.72741 18.185 7.37505 18.185ZM16.4937 14.6953L3.50647 10.6407V7.10281L16.4937 3.04474V14.6953ZM17.62 15.9286C17.9301 15.9286 18.185 15.6737 18.185 15.3637V2.37992C18.185 2.06643 17.9301 1.81496 17.62 1.81496C17.31 1.81496 17.0551 2.06988 17.0551 2.37992V15.3637C17.0551 15.6772 17.31 15.9286 17.62 15.9286Z" fill="#202020"/>
<path d="M16.4902 2.45571L16.5647 2.69433L16.7402 2.63951V2.45571H16.4902ZM3.32726 6.5689L3.11712 6.70432L3.2202 6.86427L3.40183 6.80752L3.32726 6.5689ZM3.32726 11.1747L3.40151 10.936L3.21911 10.8793L3.11644 11.0403L3.32726 11.1747ZM4.20226 11.4468L4.44635 11.3928L4.415 11.2512L4.27651 11.2081L4.20226 11.4468ZM5.48376 17.2343L5.23967 17.2883L5.2398 17.2889L5.48376 17.2343ZM9.26624 16.3971L9.02213 16.4511L9.02272 16.4537L9.26624 16.3971ZM8.46703 12.7835L8.54161 12.5449L8.12974 12.4161L8.22293 12.8375L8.46703 12.7835ZM16.4902 15.2913H16.7402V15.1076L16.5647 15.0527L16.4902 15.2913ZM8.7151 16.5177L8.95934 16.4643L8.95923 16.4638L8.7151 16.5177ZM7.84699 12.5836L8.09112 12.5297L8.05988 12.3882L7.92147 12.345L7.84699 12.5836ZM4.82239 11.6397L4.89686 11.4011L4.48492 11.2725L4.57831 11.6938L4.82239 11.6397ZM6.03499 17.1102L5.79091 17.1643L5.79097 17.1646L6.03499 17.1102ZM3.50647 10.6407H3.25647V10.8246L3.43197 10.8793L3.50647 10.6407ZM16.4937 14.6953L16.4192 14.934L16.7437 15.0353V14.6953H16.4937ZM3.50647 7.10281L3.43191 6.86419L3.25647 6.91901V7.10281H3.50647ZM16.4937 3.04474H16.7437V2.7047L16.4191 2.80612L16.4937 3.04474ZM16.7402 2.37992C16.7402 1.89447 17.1346 1.5 17.6201 1.5V1C16.8585 1 16.2402 1.61833 16.2402 2.37992H16.7402ZM16.7402 2.45571V2.37992H16.2402V2.45571H16.7402ZM3.40183 6.80752L16.5647 2.69433L16.4156 2.21709L3.2527 6.33028L3.40183 6.80752ZM2.37992 6.29872C2.6862 6.29872 2.96062 6.46147 3.11712 6.70432L3.53741 6.43347C3.2943 6.05624 2.86596 5.79872 2.37992 5.79872V6.29872ZM1.5 7.17864C1.5 6.69319 1.89447 6.29872 2.37992 6.29872V5.79872C1.61833 5.79872 1 6.41705 1 7.17864H1.5ZM1.5 10.565V7.17864H1V10.565H1.5ZM2.37992 11.4449C1.89447 11.4449 1.5 11.0504 1.5 10.565H1C1 11.3266 1.61833 11.9449 2.37992 11.9449V11.4449ZM3.11644 11.0403C2.96078 11.2846 2.68744 11.4449 2.37992 11.4449V11.9449C2.86473 11.9449 3.29414 11.6918 3.53808 11.3091L3.11644 11.0403ZM4.27651 11.2081L3.40151 10.936L3.25302 11.4134L4.12802 11.6856L4.27651 11.2081ZM5.72785 17.1802L4.44635 11.3928L3.95818 11.5009L5.23967 17.2883L5.72785 17.1802ZM7.375 18.5C6.57607 18.5 5.90203 17.958 5.72772 17.1796L5.2398 17.2889C5.46509 18.2949 6.34125 19 7.375 19V18.5ZM9.02272 16.4537C9.09346 16.7583 9.05897 17.2826 8.81172 17.724C8.57482 18.1469 8.14071 18.5 7.375 18.5V19C8.33173 19 8.92764 18.5401 9.24795 17.9683C9.55791 17.415 9.60782 16.7628 9.50976 16.3406L9.02272 16.4537ZM8.22293 12.8375L9.02214 16.4511L9.51034 16.3432L8.71113 12.7295L8.22293 12.8375ZM16.5647 15.0527L8.54161 12.5449L8.39244 13.0221L16.4156 15.53L16.5647 15.0527ZM16.7402 15.3671V15.2913H16.2402V15.3671H16.7402ZM17.6201 16.247C17.1346 16.247 16.7402 15.8526 16.7402 15.3671H16.2402C16.2402 16.1287 16.8585 16.747 17.6201 16.747V16.247ZM18.5 15.3671C18.5 15.8526 18.1055 16.247 17.6201 16.247V16.747C18.3817 16.747 19 16.1287 19 15.3671H18.5ZM18.5 2.37992V15.3671H19V2.37992H18.5ZM17.6201 1.5C18.1055 1.5 18.5 1.89447 18.5 2.37992H19C19 1.61833 18.3817 1 17.6201 1V1.5ZM2.38015 11.3799C2.82826 11.3799 3.19511 11.0131 3.19511 10.565H2.69511C2.69511 10.7369 2.55211 10.8799 2.38015 10.8799V11.3799ZM1.56519 10.565C1.56519 11.0175 1.93303 11.3799 2.38015 11.3799V10.8799C2.20718 10.8799 2.06519 10.7394 2.06519 10.565H1.56519ZM1.56519 7.17865V10.565H2.06519V7.17865H1.56519ZM2.38015 6.36369C1.93204 6.36369 1.56519 6.73054 1.56519 7.17865H2.06519C2.06519 7.00669 2.20818 6.86369 2.38015 6.86369V6.36369ZM3.19511 7.17865C3.19511 6.72611 2.82726 6.36369 2.38015 6.36369V6.86369C2.55311 6.86369 2.69511 7.00423 2.69511 7.17865H3.19511ZM3.19511 10.565V7.17865H2.69511V10.565H3.19511ZM8.47087 16.571C8.50299 16.7181 8.4891 17.0753 8.32574 17.3898C8.17325 17.6834 7.89542 17.935 7.37505 17.935V18.435C8.10516 18.435 8.54215 18.0579 8.76945 17.6203C8.98589 17.2036 9.01678 16.7272 8.95934 16.4643L8.47087 16.571ZM7.60287 12.6375L8.47098 16.5715L8.95923 16.4638L8.09112 12.5297L7.60287 12.6375ZM4.74791 11.8784L7.77252 12.8223L7.92147 12.345L4.89686 11.4011L4.74791 11.8784ZM6.27906 17.0561L5.06646 11.5856L4.57831 11.6938L5.79091 17.1643L6.27906 17.0561ZM7.37505 17.935C6.84447 17.935 6.39475 17.5753 6.279 17.0558L5.79097 17.1646C5.9577 17.9128 6.61035 18.435 7.37505 18.435V17.935ZM3.43197 10.8793L16.4192 14.934L16.5682 14.4567L3.58097 10.4021L3.43197 10.8793ZM3.25647 7.10281V10.6407H3.75647V7.10281H3.25647ZM16.4191 2.80612L3.43191 6.86419L3.58103 7.34143L16.5682 3.28336L16.4191 2.80612ZM16.7437 14.6953V3.04474H16.2437V14.6953H16.7437ZM17.935 15.3637C17.935 15.5356 17.792 15.6786 17.62 15.6786V16.1786C18.0681 16.1786 18.435 15.8118 18.435 15.3637H17.935ZM17.935 2.37992V15.3637H18.435V2.37992H17.935ZM17.62 2.06496C17.793 2.06496 17.935 2.2055 17.935 2.37992H18.435C18.435 1.92737 18.0671 1.56496 17.62 1.56496V2.06496ZM17.3051 2.37992C17.3051 2.20795 17.448 2.06496 17.62 2.06496V1.56496C17.1719 1.56496 16.8051 1.93181 16.8051 2.37992H17.3051ZM17.3051 15.3637V2.37992H16.8051V15.3637H17.3051ZM17.62 15.6786C17.4471 15.6786 17.3051 15.5381 17.3051 15.3637H16.8051C16.8051 15.8162 17.1729 16.1786 17.62 16.1786V15.6786Z" fill="#202020"/>
</svg>
