<svg width="20" height="20" viewBox="0 0 20 20" fill="none" xmlns="http://www.w3.org/2000/svg">
<path d="M9.50002 7C11.4299 7 13 5.42987 13 3.49997C13 1.57007 11.4299 0 9.50002 0C7.57012 0 6 1.57007 6 3.49997C5.99994 5.42987 7.57006 7 9.50002 7Z" fill="#333333"/>
<path d="M5.44795 14.2354H6.67995L5.46395 11.9154C6.20795 11.6994 6.67195 11.0994 6.67195 10.3074C6.67195 9.32336 5.96795 8.56336 4.86395 8.56336H2.64795V14.2354H3.75995V12.0514H4.33595L5.44795 14.2354ZM3.75995 11.0994V9.52336H4.65595C5.21595 9.52336 5.54395 9.83536 5.54395 10.3154C5.54395 10.7794 5.21595 11.0994 4.65595 11.0994H3.75995Z" fill="#333333"/>
<path d="M11.2 14.2354V13.1954H8.75195V11.8834H10.9679V10.8994H8.75195V9.60336H11.2V8.56336H7.64795V14.2354H11.2Z" fill="#333333"/>
<path d="M14.8566 14.3554C16.4486 14.3554 17.2646 13.2994 17.4806 12.4274L16.4486 12.1154C16.2966 12.6434 15.8246 13.2754 14.8566 13.2754C13.9446 13.2754 13.0966 12.6114 13.0966 11.4034C13.0966 10.1154 13.9926 9.50736 14.8406 9.50736C15.8246 9.50736 16.2646 10.1074 16.4006 10.6514L17.4406 10.3234C17.2166 9.40336 16.4086 8.44336 14.8406 8.44336C13.3206 8.44336 11.9526 9.59536 11.9526 11.4034C11.9526 13.2114 13.2726 14.3554 14.8566 14.3554Z" fill="#333333"/>
<path d="M18.9453 3.44336H1.05469C0.473125 3.44336 0 4.16084 0 5.04277V16.844C0 17.7259 0.473125 18.4434 1.05469 18.4434H18.9453C19.5269 18.4434 20 17.7259 20 16.844V5.04277C20 4.16084 19.5269 3.44336 18.9453 3.44336ZM18.8281 16.6662H1.17188V5.22048H18.8281V16.6662Z" fill="#333333"/>
</svg>
