<svg width="20" height="20" viewBox="0 0 20 20" fill="none" xmlns="http://www.w3.org/2000/svg">
<path d="M3.33328 3.34641C3.33328 4.26682 2.58713 5.01297 1.66672 5.01297C0.746155 5.01297 0 4.26682 0 3.34641C0 2.42584 0.746155 1.67969 1.66672 1.67969C2.58713 1.67969 3.33328 2.42584 3.33328 3.34641Z" fill="#524E4E"/>
<path d="M3.33328 10.0128C3.33328 10.9333 2.58713 11.6795 1.66672 11.6795C0.746155 11.6795 0 10.9333 0 10.0128C0 9.09235 0.746155 8.34619 1.66672 8.34619C2.58713 8.34619 3.33328 9.09235 3.33328 10.0128Z" fill="#524E4E"/>
<path d="M3.33328 16.6799C3.33328 17.6003 2.58713 18.3466 1.66672 18.3466C0.746155 18.3466 0 17.6003 0 16.6799C0 15.7595 0.746155 15.0132 1.66672 15.0132C2.58713 15.0132 3.33328 15.7595 3.33328 16.6799Z" fill="#524E4E"/>
<path d="M6.66693 4.1799H19.1669C19.6277 4.1799 20.0002 3.80743 20.0002 3.34662C20.0002 2.8858 19.6277 2.51318 19.1669 2.51318H6.66693C6.20612 2.51318 5.8335 2.8858 5.8335 3.34662C5.8335 3.80743 6.20612 4.1799 6.66693 4.1799Z" fill="#524E4E"/>
<path d="M19.1669 9.17969H6.66693C6.20612 9.17969 5.8335 9.55215 5.8335 10.013C5.8335 10.4738 6.20612 10.8464 6.66693 10.8464H19.1669C19.6277 10.8464 20.0002 10.4738 20.0002 10.013C20.0002 9.55215 19.6277 9.17969 19.1669 9.17969Z" fill="#524E4E"/>
<path d="M19.1669 15.8462H6.66693C6.20612 15.8462 5.8335 16.2187 5.8335 16.6795C5.8335 17.1403 6.20612 17.5128 6.66693 17.5128H19.1669C19.6277 17.5128 20.0002 17.1403 20.0002 16.6795C20.0002 16.2187 19.6277 15.8462 19.1669 15.8462Z" fill="#524E4E"/>
</svg>
